<svg width="567" height="606" viewBox="0 0 567 606" fill="none" xmlns="http://www.w3.org/2000/svg">
<path d="M266.028 286.367L460.377 92.0275C469.747 82.6575 484.947 82.6575 494.317 92.0275L516.988 114.698C526.348 124.058 526.357 139.218 517.027 148.598L362.998 303.337L517.018 458.087C526.358 467.467 526.337 482.628 516.978 491.987L494.307 514.658C484.937 524.027 469.737 524.027 460.367 514.658L266.028 320.307C256.658 310.938 256.658 295.737 266.028 286.367Z" fill="#00AEEF"/>
<path d="M51.0275 286.367L245.377 92.0275C254.747 82.6575 269.947 82.6575 279.317 92.0275L301.988 114.698C311.348 124.058 311.357 139.218 302.027 148.598L147.998 303.337L302.018 458.087C311.358 467.467 311.337 482.628 301.978 491.987L279.307 514.658C269.937 524.027 254.737 524.027 245.367 514.658L51.0275 320.307C41.6575 310.938 41.6575 295.737 51.0275 286.367Z" fill="#00AEEF"/>
</svg>
