<svg width="45" height="45" viewBox="0 0 45 45" fill="none" xmlns="http://www.w3.org/2000/svg">
<g clip-path="url(#clip0)">
<path d="M44.2447 20.4848L37.4247 13.6648V5.78662C37.4247 4.36213 36.2703 3.20769 34.8438 3.20769C33.4204 3.20769 32.2661 4.36213 32.2661 5.78662V8.50634L27.1881 3.42815C24.6775 0.918898 20.3123 0.923349 17.8075 3.43269L0.754984 20.4848C-0.251661 21.4934 -0.251661 23.1255 0.754984 24.1326C1.76208 25.141 3.39731 25.141 4.40405 24.1326L21.4549 7.08003C22.0103 6.52748 22.9894 6.52748 23.5419 7.0784L40.5957 24.1326C41.1014 24.6368 41.7607 24.8876 42.4198 24.8876C43.0802 24.8876 43.7406 24.6366 44.2447 24.1326C45.2518 23.1256 45.2518 21.4935 44.2447 20.4848Z" fill="#00AEEF"/>
<path d="M23.3958 11.9755C22.9004 11.4803 22.0982 11.4803 21.6042 11.9755L6.60483 26.9704C6.36802 27.2071 6.23376 27.5303 6.23376 27.8676V38.8043C6.23376 41.3707 8.31464 43.4515 10.8809 43.4515H18.3071V31.9508H26.6912V43.4515H34.1175C36.6837 43.4515 38.7646 41.3707 38.7646 38.8044V27.8676C38.7646 27.5303 38.6315 27.2071 38.3935 26.9704L23.3958 11.9755Z" fill="#00AEEF"/>
</g>
<defs>
<clipPath id="clip0">
<rect width="45" height="45" fill="white"/>
</clipPath>
</defs>
</svg>
