<svg width="72" height="92" viewBox="0 0 72 92" fill="none" xmlns="http://www.w3.org/2000/svg">
<path d="M1.879 74.2256C0.335076 75.723 0.307154 78.1993 1.81398 79.7451C3.31754 81.2894 5.78927 81.3216 7.33022 79.812C8.09997 79.066 15.8658 71.5268 23.4223 64.1639L20.1598 56.4419C11.4401 64.9367 2.45701 73.6564 1.879 74.2256Z" fill="#ED0C6E"/>
<path d="M26.3978 9.25959C25.6189 13.0857 28.0884 16.8164 31.9129 17.595C35.7356 18.3732 39.4651 15.9044 40.244 12.0783C41.022 8.25646 38.5537 4.53028 34.7309 3.75208C30.9064 2.97352 27.1758 5.43767 26.3978 9.25959Z" fill="#ED0C6E"/>
<path d="M60.1441 56.325L54.7351 55.2239L55.3001 52.4487C55.4525 51.7001 54.9691 50.9697 54.2206 50.8173L51.341 50.2311C51.5495 49.5861 51.5369 48.8668 51.2517 48.1906C50.8888 47.3379 40.9998 24.0462 40.9998 24.0462C40.2572 22.3028 38.9182 21.324 37.3153 20.9977L26.3892 18.7735C25.0227 18.4953 23.3811 18.7506 22.2083 19.8164C22.2083 19.8164 13.8382 27.4448 11.9777 29.132C11.4284 29.6299 11.1188 30.2909 11.0348 30.9721C10.7418 32.4117 9.26022 39.6724 8.80337 41.8824C8.47674 43.4781 9.50461 45.0284 11.0904 45.3512C12.6806 45.6792 14.2399 44.6541 14.5692 43.0632C14.7069 42.3867 16.0087 35.9923 16.6607 32.8237C17.7404 31.8415 19.828 29.9431 21.9497 28.0163L19.1435 41.8014C18.5054 44.9355 18.3858 47.5834 19.5017 50.2508C22.8936 58.2671 33.6256 83.6783 34.3038 85.3033C35.1372 87.2962 37.4214 88.2322 39.4143 87.3997C41.4038 86.5656 42.3411 84.2745 41.5104 82.2936C41.3054 81.8038 39.022 76.3974 36.1039 69.4946L56.6132 73.6697C57.5877 73.8681 58.5387 73.2389 58.7371 72.2643L61.5495 58.4488C61.7478 57.4742 61.1186 56.5234 60.1441 56.325ZM41.8354 49.7077L41.2705 52.4828L36.0501 51.4201C35.0756 51.2217 34.1247 51.8509 33.9263 52.8256L32.3434 60.6015C31.9354 59.637 31.5266 58.6706 31.1198 57.7095L36.8861 29.3841C39.5254 35.6003 43.5822 45.1614 45.2026 48.9815L43.4669 48.6282C42.7183 48.4758 41.9878 48.9591 41.8354 49.7077ZM52.0243 54.672L43.9813 53.0347L44.2704 51.6149L52.3133 53.2522L52.0243 54.672Z" fill="#ED0C6E"/>
</svg>
