<svg width="40" height="40" viewBox="0 0 40 40" fill="none" xmlns="http://www.w3.org/2000/svg">
<g clip-path="url(#clip0)">
<path d="M5.17647 34.9804H3.60784C2.95843 34.9804 2.43137 34.4533 2.43137 33.8039C2.43137 33.1545 2.95843 32.6275 3.60784 32.6275H5.17647V29.9608H3.60784C2.95843 29.9608 2.43137 29.4337 2.43137 28.7843C2.43137 28.1349 2.95843 27.6079 3.60784 27.6079H5.17647V24.9412H3.60784C2.95843 24.9412 2.43137 24.4141 2.43137 23.7647C2.43137 23.1153 2.95843 22.5882 3.60784 22.5882H5.17647V17.5686H1.17647C0.527059 17.5686 0 18.0957 0 18.7451V38.8235C0 39.473 0.527059 40 1.17647 40H5.17984C5.17537 38.436 5.17647 39.4545 5.17647 34.9804Z" fill="#C1C1C1"/>
<path d="M24.6274 1.17646C24.6274 0.527044 24.1003 -1.52588e-05 23.4509 -1.52588e-05H13.4117C12.7623 -1.52588e-05 12.2352 0.527044 12.2352 1.17646V2.66665H24.6274V1.17646Z" fill="#C1C1C1"/>
<path d="M31.9216 15.6863C27.4675 15.6863 23.8431 19.3106 23.8431 23.7647C23.8431 27.3318 28.6635 32.4471 31.1333 34.6776C31.582 35.0808 32.2604 35.0816 32.7098 34.6776C35.2369 32.3953 40 27.3114 40 23.7647C40 19.3106 36.3757 15.6863 31.9216 15.6863ZM33.8039 24.9412H30.0392C29.3898 24.9412 28.8627 24.4141 28.8627 23.7647C28.8627 23.1153 29.3898 22.5882 30.0392 22.5882H33.8039C34.4533 22.5882 34.9804 23.1153 34.9804 23.7647C34.9804 24.4141 34.4533 24.9412 33.8039 24.9412Z" fill="#C1C1C1"/>
<path d="M38.8236 37.6471H29.3334V36.2188C26.1351 33.2328 21.4902 28.1274 21.4902 23.7647C21.4902 18.9059 24.829 14.8125 29.3334 13.6588V6.19607C29.3334 5.54666 28.8063 5.0196 28.1569 5.0196H8.70589C8.05648 5.0196 7.52942 5.54666 7.52942 6.19607V40H38.8236C39.4733 40 40 39.4732 40 38.8235C40 38.1738 39.4733 37.6471 38.8236 37.6471ZM21.2549 7.5294H23.1373C23.7867 7.5294 24.3137 8.05646 24.3137 8.70587C24.3137 9.35529 23.7867 9.88235 23.1373 9.88235H21.2549C20.6055 9.88235 20.0784 9.35529 20.0784 8.70587C20.0784 8.05646 20.6055 7.5294 21.2549 7.5294ZM15.6079 29.9608H13.7255C13.0761 29.9608 12.549 29.4337 12.549 28.7843C12.549 28.1349 13.0761 27.6078 13.7255 27.6078H15.6079C16.2573 27.6078 16.7843 28.1349 16.7843 28.7843C16.7843 29.4337 16.2573 29.9608 15.6079 29.9608ZM15.6079 24.9412H13.7255C13.0761 24.9412 12.549 24.4141 12.549 23.7647C12.549 23.1153 13.0761 22.5882 13.7255 22.5882H15.6079C16.2573 22.5882 16.7843 23.1153 16.7843 23.7647C16.7843 24.4141 16.2573 24.9412 15.6079 24.9412ZM15.6079 19.9216H13.7255C13.0761 19.9216 12.549 19.3945 12.549 18.7451C12.549 18.0957 13.0761 17.5686 13.7255 17.5686H15.6079C16.2573 17.5686 16.7843 18.0957 16.7843 18.7451C16.7843 19.3945 16.2573 19.9216 15.6079 19.9216ZM15.6079 14.902H13.7255C13.0761 14.902 12.549 14.3749 12.549 13.7255C12.549 13.0761 13.0761 12.549 13.7255 12.549H15.6079C16.2573 12.549 16.7843 13.0761 16.7843 13.7255C16.7843 14.3749 16.2573 14.902 15.6079 14.902ZM15.6079 9.88235H13.7255C13.0761 9.88235 12.549 9.35529 12.549 8.70587C12.549 8.05646 13.0761 7.5294 13.7255 7.5294H15.6079C16.2573 7.5294 16.7843 8.05646 16.7843 8.70587C16.7843 9.35529 16.2573 9.88235 15.6079 9.88235ZM20.0784 13.7255C20.0784 13.0761 20.6055 12.549 21.2549 12.549H23.1373C23.7867 12.549 24.3137 13.0761 24.3137 13.7255C24.3137 14.3749 23.7867 14.902 23.1373 14.902H21.2549C20.6055 14.902 20.0784 14.3749 20.0784 13.7255Z" fill="#C1C1C1"/>
</g>
<defs>
<clipPath id="clip0">
<rect width="40" height="40" fill="white"/>
</clipPath>
</defs>
</svg>
