<svg width="40" height="40" viewBox="0 0 40 40" fill="none" xmlns="http://www.w3.org/2000/svg">
<g clip-path="url(#clip0)">
<path d="M39.3286 18.2087L33.2664 12.1465V5.14366C33.2664 3.87745 32.2403 2.85129 30.9722 2.85129C29.7071 2.85129 28.681 3.87745 28.681 5.14366V7.56119L24.1672 3.04725C21.9355 0.816801 18.0554 0.820757 15.8288 3.05129L0.671097 18.2087C-0.223699 19.1053 -0.223699 20.556 0.671097 21.4512C1.5663 22.3475 3.01983 22.3475 3.91471 21.4512L19.071 6.29337C19.5648 5.80221 20.435 5.80221 20.9262 6.29191L36.085 21.4512C36.5345 21.8994 37.1206 22.1223 37.7064 22.1223C38.2935 22.1223 38.8805 21.8992 39.3287 21.4512C40.2238 20.5561 40.2238 19.1054 39.3286 18.2087Z" fill="#C1C1C1"/>
<path d="M20.7963 10.6449C20.3559 10.2047 19.6429 10.2047 19.2038 10.6449L5.87097 23.9737C5.66048 24.1841 5.54114 24.4714 5.54114 24.7712V34.4928C5.54114 36.774 7.3908 38.6236 9.67196 38.6236H16.273V28.4007H23.7255V38.6236H30.3267C32.6078 38.6236 34.4574 36.774 34.4574 34.4928V24.7712C34.4574 24.4714 34.3392 24.1841 34.1276 23.9737L20.7963 10.6449Z" fill="#C1C1C1"/>
</g>
<defs>
<clipPath id="clip0">
<rect width="40" height="40" fill="white"/>
</clipPath>
</defs>
</svg>
