<svg width="45" height="45" viewBox="0 0 45 45" fill="none" xmlns="http://www.w3.org/2000/svg">
<g clip-path="url(#clip0)">
<path d="M5.82353 39.353H4.05882C3.32824 39.353 2.73529 38.76 2.73529 38.0294C2.73529 37.2988 3.32824 36.7059 4.05882 36.7059H5.82353V33.7059H4.05882C3.32824 33.7059 2.73529 33.113 2.73529 32.3824C2.73529 31.6518 3.32824 31.0588 4.05882 31.0588H5.82353V28.0588H4.05882C3.32824 28.0588 2.73529 27.4659 2.73529 26.7353C2.73529 26.0047 3.32824 25.4118 4.05882 25.4118H5.82353V19.7647H1.32353C0.592941 19.7647 0 20.3577 0 21.0883V43.6765C0 44.4071 0.592941 45 1.32353 45H5.82732C5.82229 43.2405 5.82353 44.3863 5.82353 39.353Z" fill="#ED0C6E"/>
<path d="M27.7058 1.32351C27.7058 0.592926 27.1129 -1.52588e-05 26.3823 -1.52588e-05H15.0882C14.3576 -1.52588e-05 13.7646 0.592926 13.7646 1.32351V2.99999H27.7058V1.32351Z" fill="#ED0C6E"/>
<path d="M35.9118 17.6471C30.901 17.6471 26.8236 21.7244 26.8236 26.7353C26.8236 30.7482 32.2466 36.5029 35.0251 39.0124C35.5298 39.4659 36.293 39.4668 36.7986 39.0124C39.6415 36.4447 45.0001 30.7253 45.0001 26.7353C45.0001 21.7244 40.9227 17.6471 35.9118 17.6471ZM38.0295 28.0588H33.7942C33.0636 28.0588 32.4707 27.4659 32.4707 26.7353C32.4707 26.0047 33.0636 25.4118 33.7942 25.4118H38.0295C38.7601 25.4118 39.353 26.0047 39.353 26.7353C39.353 27.4659 38.7601 28.0588 38.0295 28.0588Z" fill="#ED0C6E"/>
<path d="M43.6765 42.3529H33V40.7462C29.402 37.3869 24.1765 31.6434 24.1765 26.7353C24.1765 21.2691 27.9327 16.6641 33 15.3662V6.97058C33 6.23999 32.4071 5.64705 31.6765 5.64705H9.79411C9.06352 5.64705 8.47058 6.23999 8.47058 6.97058V45H43.6765C44.4074 45 45 44.4074 45 43.6765C45 42.9455 44.4074 42.3529 43.6765 42.3529ZM23.9118 8.47058H26.0294C26.76 8.47058 27.3529 9.06352 27.3529 9.79411C27.3529 10.5247 26.76 11.1176 26.0294 11.1176H23.9118C23.1812 11.1176 22.5882 10.5247 22.5882 9.79411C22.5882 9.06352 23.1812 8.47058 23.9118 8.47058ZM17.5588 33.7059H15.4412C14.7106 33.7059 14.1176 33.1129 14.1176 32.3823C14.1176 31.6518 14.7106 31.0588 15.4412 31.0588H17.5588C18.2894 31.0588 18.8824 31.6518 18.8824 32.3823C18.8824 33.1129 18.2894 33.7059 17.5588 33.7059ZM17.5588 28.0588H15.4412C14.7106 28.0588 14.1176 27.4659 14.1176 26.7353C14.1176 26.0047 14.7106 25.4118 15.4412 25.4118H17.5588C18.2894 25.4118 18.8824 26.0047 18.8824 26.7353C18.8824 27.4659 18.2894 28.0588 17.5588 28.0588ZM17.5588 22.4118H15.4412C14.7106 22.4118 14.1176 21.8188 14.1176 21.0882C14.1176 20.3576 14.7106 19.7647 15.4412 19.7647H17.5588C18.2894 19.7647 18.8824 20.3576 18.8824 21.0882C18.8824 21.8188 18.2894 22.4118 17.5588 22.4118ZM17.5588 16.7647H15.4412C14.7106 16.7647 14.1176 16.1718 14.1176 15.4412C14.1176 14.7106 14.7106 14.1176 15.4412 14.1176H17.5588C18.2894 14.1176 18.8824 14.7106 18.8824 15.4412C18.8824 16.1718 18.2894 16.7647 17.5588 16.7647ZM17.5588 11.1176H15.4412C14.7106 11.1176 14.1176 10.5247 14.1176 9.79411C14.1176 9.06352 14.7106 8.47058 15.4412 8.47058H17.5588C18.2894 8.47058 18.8824 9.06352 18.8824 9.79411C18.8824 10.5247 18.2894 11.1176 17.5588 11.1176ZM22.5882 15.4412C22.5882 14.7106 23.1812 14.1176 23.9118 14.1176H26.0294C26.76 14.1176 27.3529 14.7106 27.3529 15.4412C27.3529 16.1718 26.76 16.7647 26.0294 16.7647H23.9118C23.1812 16.7647 22.5882 16.1718 22.5882 15.4412Z" fill="#ED0C6E"/>
</g>
<defs>
<clipPath id="clip0">
<rect width="45" height="45" fill="white"/>
</clipPath>
</defs>
</svg>
