<svg width="45" height="45" viewBox="0 0 45 45" fill="none" xmlns="http://www.w3.org/2000/svg">
<path d="M22.5 7.91032C15.9089 7.91032 10.5466 13.2726 10.5466 19.8637C10.5466 26.4548 15.9089 31.8171 22.5 31.8171C29.0911 31.8171 34.4534 26.4548 34.4534 19.8637C34.4534 13.2726 29.0911 7.91032 22.5 7.91032ZM23.8184 29.0924H21.1816V26.4556H23.8184V29.0924ZM23.8184 21.0167V23.8189H21.1816V18.5453H22.5C23.9781 18.5453 25.1807 17.3427 25.1807 15.8646C25.1807 14.3865 23.9781 13.1839 22.5 13.1839C21.0218 13.1839 19.8193 14.3865 19.8193 15.8646H17.1825C17.1825 12.9326 19.5679 10.5471 22.5 10.5471C25.432 10.5471 27.8175 12.9326 27.8175 15.8646C27.8175 18.3418 26.1149 20.4288 23.8184 21.0167Z" fill="#353535"/>
<path d="M36.5457 5.81787C32.7939 2.06618 27.8057 0 22.4999 0C17.1941 0 12.2059 2.06618 8.4541 5.81787C4.70241 9.56974 2.63623 14.5579 2.63623 19.8637C2.63623 28.8092 8.59069 36.6209 17.1671 39.0028L22.4999 45L27.8328 39.0028C36.4093 36.6209 42.3636 28.8092 42.3636 19.8637C42.3636 14.5579 40.2975 9.56974 36.5457 5.81787ZM22.4999 34.4539C14.4549 34.4539 7.90978 27.9087 7.90978 19.8637C7.90978 11.8187 14.4549 5.27355 22.4999 5.27355C30.5449 5.27355 37.0901 11.8187 37.0901 19.8637C37.0901 27.9087 30.5449 34.4539 22.4999 34.4539Z" fill="#353535"/>
</svg>
